<svg width="16" height="16" viewBox="0 0 16 16" fill="none" xmlns="http://www.w3.org/2000/svg">
<path d="M6.66699 7.25C7.08109 7.25013 7.41699 7.58587 7.41699 8V12.667C7.41682 13.081 7.08098 13.4169 6.66699 13.417C6.34988 13.417 6.07943 13.2196 5.96973 12.9414C5.82414 13.0327 5.67316 13.1155 5.51367 13.1816C5.13959 13.3366 4.73792 13.417 4.33301 13.417C3.92821 13.4169 3.52731 13.3366 3.15332 13.1816C2.77937 13.0267 2.43956 12.7999 2.15332 12.5137C1.86706 12.2274 1.63932 11.8877 1.48438 11.5137C1.32942 11.1396 1.25 10.7379 1.25 10.333C1.25004 9.92823 1.32948 9.52729 1.48438 9.15332C1.63933 8.77923 1.86701 8.43963 2.15332 8.15332C2.43963 7.86701 2.77923 7.63933 3.15332 7.48438C3.52729 7.32948 3.92823 7.25004 4.33301 7.25C4.73792 7.25 5.13958 7.32942 5.51367 7.48438C5.67297 7.55038 5.82434 7.63232 5.96973 7.72363C6.0798 7.44627 6.35043 7.25 6.66699 7.25ZM11.666 2.58301C12.4837 2.58301 13.2685 2.90824 13.8467 3.48633C14.4247 4.06442 14.7498 4.84855 14.75 5.66602V12.666C14.75 13.0801 14.4141 13.4158 14 13.416C13.5859 13.4159 13.25 13.0801 13.25 12.666V9.41699H10.083V12.666C10.083 13.0802 9.74722 13.416 9.33301 13.416C8.91891 13.4159 8.58301 13.0801 8.58301 12.666V5.66602C8.58316 4.84847 8.90823 4.06443 9.48633 3.48633C10.0644 2.90823 10.8485 2.58316 11.666 2.58301ZM4.33301 8.75C4.12528 8.75004 3.91947 8.79066 3.72754 8.87012C3.53544 8.94969 3.36089 9.06684 3.21387 9.21387C3.06684 9.36089 2.94969 9.53544 2.87012 9.72754C2.79066 9.91947 2.75004 10.1253 2.75 10.333C2.75 10.5409 2.79055 10.7474 2.87012 10.9395C2.94969 11.1315 3.06685 11.3061 3.21387 11.4531C3.36086 11.6001 3.53551 11.7164 3.72754 11.7959C3.91953 11.8754 4.1252 11.9169 4.33301 11.917C4.54093 11.917 4.74735 11.8755 4.93945 11.7959C5.13145 11.7163 5.30617 11.6001 5.45312 11.4531C5.60008 11.3062 5.71633 11.1314 5.7959 10.9395C5.87547 10.7474 5.91699 10.5409 5.91699 10.333C5.91695 10.1252 5.87542 9.91953 5.7959 9.72754C5.71636 9.53551 5.60007 9.36086 5.45312 9.21387C5.30611 9.06685 5.13154 8.94969 4.93945 8.87012C4.74735 8.79055 4.54093 8.75 4.33301 8.75ZM11.666 4.08301C11.2463 4.08316 10.8437 4.25008 10.5469 4.54688C10.2501 4.84367 10.0832 5.2463 10.083 5.66602V7.91699H13.25V5.66602C13.2498 5.24637 13.0828 4.84366 12.7861 4.54688C12.4892 4.2501 12.0858 4.08301 11.666 4.08301Z" fill="white"/>
</svg>
