<svg width="16" height="16" viewBox="0 0 16 16" fill="none" xmlns="http://www.w3.org/2000/svg">
<path d="M10.8027 10.1368C11.0956 9.84395 11.5704 9.84397 11.8633 10.1368L13.1963 11.4698C13.2524 11.526 13.2945 11.5904 13.3291 11.6573C13.3387 11.6759 13.3503 11.6935 13.3584 11.713C13.3659 11.7311 13.37 11.7502 13.376 11.7687C13.3999 11.8419 13.416 11.9189 13.416 12.0001C13.416 12.0831 13.3989 12.1618 13.374 12.2364C13.3685 12.2529 13.3651 12.2701 13.3584 12.2863C13.3462 12.3157 13.3301 12.3428 13.3145 12.3702C13.306 12.385 13.2996 12.4009 13.29 12.4152C13.2867 12.4202 13.2828 12.4248 13.2793 12.4298C13.2547 12.4648 13.2276 12.4991 13.1963 12.5304L11.8633 13.8644C11.5704 14.1568 11.0955 14.157 10.8027 13.8644C10.51 13.5716 10.5103 13.0967 10.8027 12.8038L10.8564 12.7501H5.14258L5.19629 12.8038C5.48918 13.0967 5.48918 13.5715 5.19629 13.8644C4.90335 14.1567 4.42843 14.1571 4.13574 13.8644L2.80273 12.5304C2.77464 12.5023 2.75024 12.4717 2.72754 12.4405C2.69286 12.3929 2.66344 12.3414 2.64062 12.2863C2.63396 12.2701 2.63049 12.2529 2.625 12.2364C2.60014 12.1619 2.58301 12.0831 2.58301 12.0001C2.58301 11.9551 2.58713 11.9111 2.59473 11.8683C2.60381 11.817 2.61888 11.7667 2.63867 11.7179L2.64258 11.7081C2.65372 11.6818 2.66866 11.6576 2.68262 11.6329C2.71527 11.5751 2.7535 11.5191 2.80273 11.4698L4.13574 10.1368C4.42857 9.84401 4.90338 9.84414 5.19629 10.1368C5.48918 10.4297 5.48918 10.9045 5.19629 11.1974L5.14355 11.2501H10.8555L10.8027 11.1974C10.51 10.9046 10.5101 10.4297 10.8027 10.1368ZM5 1.91711C5.64081 1.9172 6.25585 2.172 6.70898 2.62512C7.16199 3.0783 7.41602 3.69332 7.41602 4.3341V8.00012C7.41588 8.41422 7.08015 8.75012 6.66602 8.75012C6.25217 8.74978 5.91615 8.41401 5.91602 8.00012V6.0841H4.08301V8.00012C4.08287 8.41422 3.74714 8.75012 3.33301 8.75012C2.91902 8.74995 2.58314 8.41412 2.58301 8.00012V4.3341C2.58301 3.69329 2.83798 3.0783 3.29102 2.62512C3.74416 2.17198 4.35917 1.91719 5 1.91711ZM11.9648 2.40344C12.1104 2.01581 12.5429 1.81956 12.9307 1.96496C13.3181 2.11065 13.5145 2.54317 13.3691 2.93078L11.3691 8.26379C11.2594 8.55634 10.9794 8.74999 10.667 8.75012C10.3545 8.75012 10.0747 8.55632 9.96484 8.26379L7.96484 2.93078C7.81944 2.54305 8.01569 2.11052 8.40332 1.96496C8.79101 1.81969 9.22361 2.01587 9.36914 2.40344L10.667 5.86438L11.9648 2.40344ZM5 3.41711C4.75699 3.41719 4.5234 3.51383 4.35156 3.68567C4.17983 3.85755 4.08301 4.09112 4.08301 4.3341V4.5841H5.91602V4.3341C5.91602 4.09099 5.81937 3.85757 5.64746 3.68567C5.47565 3.51395 5.24291 3.4172 5 3.41711Z" fill="white"/>
</svg>
