<svg width="16" height="16" viewBox="0 0 16 16" fill="none" xmlns="http://www.w3.org/2000/svg">
<path d="M4.0265 2.58398C4.03302 2.58422 4.03952 2.58456 4.04603 2.58496C4.08434 2.58728 4.12179 2.59273 4.15834 2.60059C4.19332 2.60813 4.22705 2.62023 4.26088 2.63281C4.27208 2.63699 4.28411 2.63887 4.29505 2.64355C4.38047 2.68009 4.4607 2.73306 4.53041 2.80273L6.53041 4.80273C6.82321 5.09554 6.82304 5.57037 6.53041 5.86328C6.23751 6.15617 5.76275 6.15617 5.46986 5.86328L4.75013 5.14355V10.8564L5.46986 10.1367C5.76275 9.84383 6.23751 9.84383 6.53041 10.1367C6.82304 10.4296 6.82321 10.9045 6.53041 11.1973L4.53041 13.1973C4.47748 13.2502 4.4163 13.2895 4.35365 13.3232C4.33135 13.3353 4.30984 13.3486 4.28627 13.3584C4.25603 13.3709 4.22481 13.3793 4.19349 13.3877C4.17843 13.3917 4.16399 13.3983 4.14857 13.4014C4.14116 13.4029 4.13355 13.403 4.12611 13.4043C4.09194 13.4101 4.05719 13.4131 4.02162 13.4141C4.00693 13.4145 3.99236 13.4145 3.97767 13.4141C3.94211 13.413 3.90734 13.4101 3.87318 13.4043C3.86574 13.403 3.85812 13.4029 3.85072 13.4014C3.8353 13.3983 3.82085 13.3917 3.8058 13.3877C3.7745 13.3793 3.74324 13.3709 3.71302 13.3584C3.68987 13.3488 3.66853 13.336 3.64662 13.3242C3.58378 13.2904 3.52293 13.2503 3.46986 13.1973L1.46986 11.1973C1.177 10.9044 1.17708 10.4296 1.46986 10.1367C1.76275 9.84383 2.23751 9.84383 2.53041 10.1367L3.25013 10.8564V5.14355L2.53041 5.86328C2.23751 6.15617 1.76275 6.15617 1.46986 5.86328C1.17708 5.57038 1.177 5.09559 1.46986 4.80273L3.46986 2.80273L3.5265 2.75098C3.53705 2.74237 3.5488 2.73548 3.5597 2.72754C3.57358 2.71743 3.58809 2.70837 3.60267 2.69922C3.63 2.68207 3.65779 2.6666 3.68666 2.65332C3.70043 2.64696 3.71444 2.64127 3.72865 2.63574C3.75785 2.62442 3.78737 2.61495 3.81752 2.60742C3.84257 2.60115 3.86771 2.59451 3.89369 2.59082C3.89761 2.59026 3.90148 2.58936 3.90541 2.58887C3.93637 2.58497 3.96812 2.58301 4.00013 2.58301C4.00896 2.58301 4.01775 2.58368 4.0265 2.58398ZM13.3341 11.25C13.748 11.2504 14.0841 11.586 14.0841 12C14.0841 12.414 13.748 12.7496 13.3341 12.75H8.66713C8.25291 12.75 7.91713 12.4142 7.91713 12C7.91713 11.5858 8.25291 11.25 8.66713 11.25H13.3341ZM13.3341 7.25C13.748 7.25042 14.0841 7.58605 14.0841 8C14.0841 8.41395 13.748 8.74958 13.3341 8.75H8.66713C8.25291 8.75 7.91713 8.41421 7.91713 8C7.91713 7.58579 8.25291 7.25 8.66713 7.25H13.3341ZM13.3341 3.25C13.748 3.25042 14.0841 3.58605 14.0841 4C14.0841 4.41395 13.748 4.74958 13.3341 4.75H8.66713C8.25291 4.75 7.91713 4.41421 7.91713 4C7.91713 3.58579 8.25291 3.25 8.66713 3.25H13.3341Z" fill="white"/>
</svg>
