<svg width="14" height="14" viewBox="0 0 14 14" fill="none" xmlns="http://www.w3.org/2000/svg">
<path d="M7 3C7.27599 3.00018 7.5 3.22397 7.5 3.5C7.5 3.77603 7.27599 3.99982 7 4H3.5C3.32328 4.00006 3.15329 4.07035 3.02832 4.19531C2.90337 4.32033 2.83301 4.49024 2.83301 4.66699V10.5C2.83301 10.6768 2.90337 10.8467 3.02832 10.9717C3.15327 11.0965 3.32335 11.1669 3.5 11.167H9.33301C9.50976 11.167 9.67967 11.0966 9.80469 10.9717C9.92971 10.8467 10 10.6768 10 10.5V7C10 6.72394 10.224 6.50013 10.5 6.5C10.776 6.50018 11 6.72397 11 7V10.5C11 10.942 10.8243 11.3662 10.5117 11.6787C10.1992 11.9912 9.77498 12.167 9.33301 12.167H3.5C3.05814 12.1669 2.63378 11.9911 2.32129 11.6787C2.0088 11.3662 1.83301 10.942 1.83301 10.5V4.66699C1.83301 4.22502 2.0088 3.80083 2.32129 3.48828C2.63379 3.17578 3.05806 3.00006 3.5 3H7ZM11.667 1.83301C11.6997 1.83302 11.7324 1.83637 11.7646 1.84277C11.7767 1.84517 11.788 1.85026 11.7998 1.85352C11.8191 1.85886 11.8387 1.86339 11.8574 1.87109C11.8785 1.87978 11.8975 1.89197 11.917 1.90332C11.9251 1.90806 11.9345 1.91078 11.9424 1.91602C12.0776 2.00547 12.1669 2.15882 12.167 2.33301V5.25C12.1668 5.52588 11.9429 5.74982 11.667 5.75C11.391 5.75 11.1672 5.52599 11.167 5.25V3.54004L6.77051 7.93652C6.57525 8.13179 6.25874 8.13179 6.06348 7.93652C5.86821 7.74126 5.86821 7.42475 6.06348 7.22949L10.46 2.83301H8.75C8.47386 2.83301 8.25 2.60915 8.25 2.33301C8.25013 2.05698 8.47394 1.83301 8.75 1.83301H11.667Z" fill="white"/>
</svg>
